<svg xmlns="http://www.w3.org/2000/svg" width="600" height="400" viewBox="0 0 600 400" fill="none">
  <!-- Background -->
  <rect width="600" height="400" rx="8" fill="#F3F4F6"/>
  
  <!-- Header -->
  <rect y="0" width="600" height="60" rx="8" fill="#0066CC"/>
  <rect x="20" y="20" width="120" height="20" rx="4" fill="white"/>
  <circle cx="560" cy="30" r="15" fill="white"/>
  
  <!-- Sidebar -->
  <rect x="0" y="60" width="180" height="340" fill="white"/>
  
  <!-- Sidebar Menu Items -->
  <rect x="20" y="100" width="140" height="40" rx="4" fill="#E5F0FF"/>
  <rect x="30" y="115" width="100" height="10" rx="2" fill="#0066CC"/>
  
  <rect x="20" y="150" width="140" height="40" rx="4" fill="#F3F4F6"/>
  <rect x="30" y="165" width="100" height="10" rx="2" fill="#6B7280"/>
  
  <rect x="20" y="200" width="140" height="40" rx="4" fill="#F3F4F6"/>
  <rect x="30" y="215" width="100" height="10" rx="2" fill="#6B7280"/>
  
  <rect x="20" y="250" width="140" height="40" rx="4" fill="#F3F4F6"/>
  <rect x="30" y="265" width="100" height="10" rx="2" fill="#6B7280"/>
  
  <!-- Main Content -->
  <rect x="200" y="80" width="380" height="60" rx="8" fill="white"/>
  <rect x="220" y="100" width="150" height="20" rx="4" fill="#1F2937"/>
  
  <!-- Stat Cards -->
  <rect x="200" y="160" width="180" height="100" rx="8" fill="white"/>
  <rect x="220" y="180" width="80" height="10" rx="2" fill="#6B7280"/>
  <rect x="220" y="200" width="100" height="20" rx="4" fill="#1F2937"/>
  <circle cx="340" cy="210" r="20" fill="#E5F0FF"/>
  
  <rect x="400" y="160" width="180" height="100" rx="8" fill="white"/>
  <rect x="420" y="180" width="80" height="10" rx="2" fill="#6B7280"/>
  <rect x="420" y="200" width="100" height="20" rx="4" fill="#1F2937"/>
  <circle cx="540" cy="210" r="20" fill="#FEF3C7"/>
  
  <!-- Table -->
  <rect x="200" y="280" width="380" height="100" rx="8" fill="white"/>
  <rect x="220" y="300" width="120" height="10" rx="2" fill="#1F2937"/>
  <rect x="220" y="320" width="340" height="1" fill="#E5E7EB"/>
  
  <rect x="220" y="330" width="60" height="10" rx="2" fill="#6B7280"/>
  <rect x="300" y="330" width="60" height="10" rx="2" fill="#6B7280"/>
  <rect x="380" y="330" width="60" height="10" rx="2" fill="#6B7280"/>
  <rect x="460" y="330" width="60" height="10" rx="2" fill="#6B7280"/>
  
  <rect x="220" y="350" width="60" height="10" rx="2" fill="#6B7280"/>
  <rect x="300" y="350" width="60" height="10" rx="2" fill="#6B7280"/>
  <rect x="380" y="350" width="60" height="10" rx="2" fill="#6B7280"/>
  <rect x="460" y="350" width="60" height="10" rx="2" fill="#6B7280"/>
</svg>