<svg xmlns="http://www.w3.org/2000/svg" width="80" height="80" viewBox="0 0 80 80" fill="none">
  <circle cx="40" cy="40" r="35" fill="#0066CC"/>
  <path d="M40 15C26.2 15 15 26.2 15 40C15 53.8 26.2 65 40 65C53.8 65 65 53.8 65 40C65 26.2 53.8 15 40 15ZM40 60C29 60 20 51 20 40C20 29 29 20 40 20C51 20 60 29 60 40C60 51 51 60 40 60Z" fill="#004C99"/>
  <path d="M50 30C47.2 30 45 32.2 45 35C45 37.8 47.2 40 50 40C52.8 40 55 37.8 55 35C55 32.2 52.8 30 50 30Z" fill="white"/>
  <path d="M40 25C36.7 25 34 27.7 34 31C34 34.3 36.7 37 40 37C43.3 37 46 34.3 46 31C46 27.7 43.3 25 40 25Z" fill="white"/>
  <path d="M30 30C27.2 30 25 32.2 25 35C25 37.8 27.2 40 30 40C32.8 40 35 37.8 35 35C35 32.2 32.8 30 30 30Z" fill="white"/>
  <path d="M55 45L50 55L45 45H55Z" fill="#FF9933"/>
</svg>